 <svg  version="1.0" xmlns="http://www.w3.org/2000/svg"  width="300.000000pt" height="300.000000pt" viewBox="0 0 300.000000 300.000000"  preserveAspectRatio="xMidYMid meet">  <g transform="translate(0.000000,300.000000) scale(0.100000,-0.100000)" fill="#ee3a3a" stroke="none"> <path d="M1338 2927 c-27 -5 -48 -12 -48 -16 0 -3 13 -15 29 -26 16 -10 27 -23 25 -27 -3 -4 0 -8 5 -8 6 0 11 -5 11 -11 0 -5 -4 -7 -10 -4 -5 3 -10 -2 -10 -11 0 -10 3 -14 7 -11 3 4 12 2 20 -5 11 -9 12 -7 7 8 -6 16 -4 17 6 7 15 -14 18 -24 28 -90 6 -32 15 -48 42 -67 19 -15 42 -29 50 -32 19 -7 60 -70 60 -92 0 -9 7 -25 14 -35 8 -10 12 -37 11 -65 l-2 -48 46 -19 c25 -10 65 -38 89 -63 42 -42 45 -43 63 -26 22 20 24 9 11 -41 -5 -19 -3 -47 5 -75 12 -43 13 -43 9 -8 -4 32 0 41 30 68 36 31 59 39 51 18 -2 -7 -10 -12 -16 -10 -7 1 -10 -2 -6 -8 4 -6 1 -17 -5 -25 -10 -12 -10 -15 1 -15 13 0 129 118 129 131 0 3 -7 6 -15 6 -8 0 -12 -4 -10 -8 3 -3 -4 -9 -15 -12 -25 -7 -26 5 0 28 11 10 17 21 15 26 -3 4 3 13 12 19 16 10 15 11 -7 6 -22 -4 -23 -4 -8 8 10 7 14 17 10 22 -4 4 1 3 10 -4 13 -11 16 -11 14 0 -1 7 -5 19 -10 26 -12 19 1 27 19 12 9 -7 14 -19 11 -27 -5 -11 -1 -11 17 -2 17 10 19 13 7 17 -28 9 -29 26 -4 49 33 30 44 30 15 -1 -12 -13 -19 -26 -14 -29 4 -3 14 1 21 9 7 8 9 14 5 14 -4 0 -2 5 5 12 7 7 12 21 12 33 0 14 -3 16 -9 7 -4 -7 -17 -14 -29 -15 -11 0 -23 -9 -26 -19 -3 -15 -10 -17 -31 -12 -14 3 -25 2 -24 -2 3 -20 -2 -32 -17 -38 -13 -5 -15 -2 -11 16 6 22 6 22 -14 -2 -16 -19 -18 -20 -10 -4 15 32 39 47 72 47 18 0 29 6 29 14 0 8 -4 12 -9 8 -6 -3 -7 6 -2 22 9 32 4 56 -10 47 -5 -3 -9 0 -9 5 0 6 -10 11 -22 11 -12 0 -19 2 -16 6 3 3 2 20 -2 39 -4 19 -4 33 0 30 4 -3 11 2 14 11 4 12 2 15 -9 10 -8 -3 -15 -1 -15 5 0 6 -6 7 -12 3 -10 -5 -10 -4 -2 6 7 6 23 13 36 13 33 3 32 24 -1 23 -18 0 -25 4 -23 14 2 8 0 11 -5 7 -8 -8 -9 -12 -12 -39 0 -6 -4 -9 -7 -5 -4 3 -25 -4 -48 -15 -22 -12 -43 -23 -46 -23 -3 -1 -22 -9 -44 -18 -21 -9 -41 -17 -45 -17 -3 0 -21 -16 -39 -36 l-33 -35 7 28 c9 37 14 44 24 38 5 -3 11 -1 14 4 3 5 24 18 46 30 21 11 58 38 81 61 24 23 51 40 65 40 30 0 41 20 20 36 -10 7 -15 17 -12 23 9 13 -11 24 -53 28 -18 2 -42 8 -52 13 -9 6 -30 7 -46 4 -20 -4 -33 -1 -42 10 -8 10 -29 16 -52 16 -21 0 -41 5 -44 10 -4 7 -29 8 -68 4 -34 -4 -66 -6 -72 -5 -37 6 -87 6 -127 -2z m552 -211 c0 -3 -4 -8 -10 -11 -5 -3 -10 -1 -10 4 0 6 5 11 10 11 6 0 10 -2 10 -4z m17 -33 c-4 -3 -10 -3 -14 0 -3 4 0 7 7 7 7 0 10 -3 7 -7z m-40 -30 c-4 -3 -10 -3 -14 0 -3 4 0 7 7 7 7 0 10 -3 7 -7z m90 -80 c-4 -3 -7 0 -7 7 0 7 3 10 7 7 3 -4 3 -10 0 -14z m13 -33 c0 -5 -4 -10 -10 -10 -5 0 -10 5 -10 10 0 6 5 10 10 10 6 0 10 -4 10 -10z m-133 -27 c-4 -3 -7 0 -7 7 0 7 3 10 7 7 3 -4 3 -10 0 -14z m51 -37 c12 -3 12 -4 -3 -3 -11 1 -20 9 -21 17 0 8 1 10 3 3 2 -6 12 -14 21 -17z m9 17 c-4 -3 -10 -3 -14 0 -3 4 0 7 7 7 7 0 10 -3 7 -7z m-86 -79 c-12 -15 -21 -22 -21 -16 0 6 7 17 15 26 8 8 15 21 16 28 0 10 2 10 6 1 2 -7 -5 -25 -16 -39z m76 -9 c-4 -8 -11 -15 -17 -15 -7 0 -7 6 0 21 13 23 26 19 17 -6z m70 18 c-4 -3 -10 -3 -14 0 -3 4 0 7 7 7 7 0 10 -3 7 -7z m-16 -76 c-8 -8 -11 -8 -11 2 0 7 -5 9 -11 5 -7 -4 -7 2 1 16 11 21 13 22 22 6 7 -12 6 -22 -1 -29z m-67 0 c7 -6 6 -7 -4 -4 -8 2 -16 12 -17 23 -2 13 -1 15 4 4 3 -8 11 -19 17 -23z m-84 -1 c0 -3 -5 -8 -12 -12 -7 -4 -8 -3 -4 4 7 12 16 16 16 8z m76 -64 c-17 -16 -18 -16 -5 5 7 12 15 20 18 17 3 -2 -3 -12 -13 -22z"/> <path d="M1233 2903 c9 -2 25 -2 35 0 9 3 1 5 -18 5 -19 0 -27 -2 -17 -5z"/> <path d="M1130 2879 c-14 -6 -36 -21 -50 -34 -14 -13 -40 -26 -58 -28 -19 -3 -43 -14 -54 -23 -16 -15 -21 -16 -28 -5 -6 11 -14 8 -34 -13 -16 -15 -38 -26 -55 -26 -17 0 -38 -11 -56 -30 -16 -16 -36 -30 -46 -30 -9 0 -22 -7 -30 -16 -10 -13 -10 -17 2 -25 9 -6 10 -9 2 -9 -7 0 -17 -10 -23 -22 -10 -22 -10 -22 4 -4 14 18 15 18 13 -2 0 -12 -7 -19 -17 -17 -8 1 -14 8 -12 14 1 6 -4 11 -12 11 -30 0 -46 -13 -46 -37 0 -19 -4 -24 -16 -19 -23 9 -37 -3 -23 -20 9 -11 9 -18 1 -26 -8 -8 -12 -9 -12 -1 0 38 -83 10 -94 -31 -3 -14 -18 -31 -33 -38 -15 -7 -32 -23 -38 -35 -6 -11 -25 -35 -43 -51 -18 -17 -32 -37 -32 -45 0 -9 -19 -28 -42 -44 -30 -20 -44 -37 -46 -56 -2 -15 -19 -43 -38 -62 -19 -19 -37 -48 -40 -64 -4 -16 -12 -32 -20 -35 -8 -3 -14 -16 -14 -29 0 -13 -9 -32 -20 -42 -11 -10 -19 -23 -18 -29 5 -31 -16 -116 -33 -131 -13 -13 -16 -22 -9 -35 6 -12 4 -24 -8 -41 -9 -13 -17 -46 -18 -79 -8 -201 -8 -272 -2 -276 5 -3 8 -18 8 -35 0 -23 5 -29 23 -30 15 -1 17 -3 6 -6 -17 -4 -15 -43 2 -43 5 0 6 7 3 15 -4 8 -1 15 5 15 6 0 10 -5 9 -11 -2 -6 7 -13 20 -15 21 -4 33 18 15 29 -5 2 -3 3 2 2 6 -1 19 7 30 18 11 11 13 16 5 12 -8 -4 -5 2 7 14 29 28 111 71 135 71 10 0 35 -7 56 -16 20 -9 62 -19 92 -24 30 -4 64 -12 74 -16 15 -6 17 -4 11 6 -5 9 -4 11 4 6 6 -4 9 -11 6 -16 -5 -8 24 -30 38 -30 9 0 -24 114 -40 138 -8 13 -17 49 -20 80 -3 32 -11 64 -18 72 -21 25 -45 78 -45 98 0 10 -9 28 -20 40 -22 24 -26 42 -8 42 6 0 8 -3 5 -6 -4 -4 2 -19 12 -33 10 -14 21 -35 24 -46 4 -19 5 -18 6 2 0 12 -3 25 -9 28 -5 3 -10 18 -10 32 0 15 -13 50 -30 79 -27 49 -28 53 -11 59 26 8 65 -9 90 -41 12 -15 21 -21 21 -13 0 12 2 12 9 0 5 -7 14 -10 20 -7 6 4 11 3 11 -3 0 -5 -6 -14 -14 -18 -9 -5 -11 -15 -5 -28 4 -11 8 -14 8 -7 1 18 29 14 40 -6 5 -10 6 -24 1 -31 -6 -11 -9 -10 -13 5 -4 16 -5 16 -6 -3 0 -12 8 -47 20 -78 25 -67 20 -80 -11 -30 -27 44 -38 40 -15 -7 l16 -33 -22 25 c-23 26 -24 19 -4 -35 7 -19 7 -19 -6 -2 -13 16 -14 14 -13 -15 1 -18 2 -47 3 -65 1 -25 10 -38 40 -60 22 -15 46 -39 55 -53 12 -19 16 -21 16 -8 0 10 9 44 19 75 11 32 23 81 26 108 4 28 15 79 25 115 20 70 35 179 20 145 -12 -28 -12 -8 1 60 25 136 99 207 233 224 33 5 48 9 32 10 -25 1 -27 3 -15 18 17 20 18 17 -5 42 -18 20 -18 20 1 17 17 -4 19 0 16 22 -4 21 -2 24 6 12 9 -12 11 -10 11 12 0 15 5 30 11 34 6 3 9 24 7 45 -2 22 -1 39 2 39 3 0 14 14 23 30 10 17 15 30 11 30 -5 0 -3 5 4 12 7 7 12 21 12 32 0 17 2 18 10 6 7 -12 13 -11 34 10 15 13 26 28 26 34 0 5 -7 1 -15 -10 -13 -17 -14 -16 -5 15 6 22 6 40 -1 52 -5 11 -7 24 -3 31 4 6 1 9 -7 6 -8 -3 -13 -14 -11 -24 2 -16 1 -16 -7 -4 -7 10 -6 19 5 31 17 19 18 45 3 55 -8 4 -9 0 -4 -15 4 -15 3 -19 -7 -16 -7 3 -14 17 -15 32 0 16 2 21 7 13 6 -9 10 -8 19 6 8 15 10 16 11 3 0 -21 30 -20 30 1 0 10 8 24 18 31 15 12 16 12 6 -1 -17 -23 -24 -61 -17 -89 6 -22 7 -23 13 -6 6 18 8 17 30 -5 20 -20 22 -20 16 -4 -8 21 -18 106 -17 142 1 16 -3 21 -12 16 -9 -6 -9 -4 -1 7 5 8 9 20 8 27 -1 6 -2 21 -3 32 -1 22 -37 26 -81 9z m80 -33 c0 -11 -19 -15 -25 -6 -3 5 1 10 9 10 9 0 16 -2 16 -4z m-146 -44 c3 -5 -1 -9 -9 -9 -8 0 -12 4 -9 9 3 4 7 8 9 8 2 0 6 -4 9 -8z m-147 -49 c-4 -3 -7 0 -7 7 0 7 3 10 7 7 3 -4 3 -10 0 -14z m100 0 c-4 -3 -7 0 -7 7 0 7 3 10 7 7 3 -4 3 -10 0 -14z m58 -55 c4 -17 2 -35 -5 -43 -6 -8 -8 -20 -4 -26 4 -7 3 -9 -4 -5 -6 3 -16 22 -22 41 -6 19 -16 35 -20 35 -5 0 -7 6 -4 14 3 7 16 14 29 14 18 0 25 -7 30 -30z m-175 -2 c0 -2 -9 -6 -20 -9 -11 -3 -18 -1 -14 4 5 9 34 13 34 5z m207 -53 c-4 -3 -10 -3 -14 0 -3 4 0 7 7 7 7 0 10 -3 7 -7z m-262 -43 c3 -5 4 -10 1 -10 -3 0 -8 5 -11 10 -3 6 -4 10 -1 10 3 0 8 -4 11 -10z m-48 -17 c-4 -3 -7 0 -7 7 0 7 3 10 7 7 3 -4 3 -10 0 -14z m-160 -75 c0 -18 -2 -25 -4 -15 -3 9 -9 17 -14 17 -14 0 9 -40 27 -47 24 -9 16 -24 -11 -19 -22 4 -23 2 -13 -14 8 -13 16 -16 24 -10 6 6 14 7 17 3 4 -3 7 -2 7 4 0 6 6 13 14 16 25 10 12 -27 -16 -45 -28 -18 -37 -38 -18 -38 15 0 12 -26 -5 -40 -13 -10 -15 -9 -15 9 0 11 -6 21 -12 21 -9 0 -9 3 -3 8 13 9 13 41 0 43 -5 0 -11 -5 -13 -13 -2 -9 0 -8 7 2 7 9 11 10 11 3 0 -6 -4 -14 -9 -17 -11 -7 -43 28 -34 38 4 3 -3 13 -15 22 -23 16 -30 44 -11 44 7 0 8 7 4 17 -4 12 5 7 26 -12 18 -17 27 -22 19 -11 -13 16 -12 20 9 37 13 11 18 19 12 19 -7 0 -9 5 -6 10 11 18 22 2 22 -32z m80 35 c-4 -3 -10 -3 -14 0 -3 4 0 7 7 7 7 0 10 -3 7 -7z m-160 -20 c-4 -3 -10 -3 -14 0 -3 4 0 7 7 7 7 0 10 -3 7 -7z m238 -11 c-3 -3 -11 0 -18 7 -9 10 -8 11 6 5 10 -3 15 -9 12 -12z m116 -5 c-10 -9 -11 -8 -5 6 3 10 9 15 12 12 3 -3 0 -11 -7 -18z m-181 9 c0 -2 -7 -6 -15 -10 -8 -3 -15 -1 -15 4 0 6 7 10 15 10 8 0 15 -2 15 -4z m-46 -31 c-4 -8 -11 -15 -16 -15 -6 0 -5 6 2 15 7 8 14 15 16 15 2 0 1 -7 -2 -15z m53 -32 c-4 -3 -7 0 -7 7 0 7 3 10 7 7 3 -4 3 -10 0 -14z m241 -31 c2 -7 -2 -10 -12 -6 -9 3 -16 11 -16 16 0 13 23 5 28 -10z m29 -9 c-4 -3 -7 0 -7 7 0 7 3 10 7 7 3 -4 3 -10 0 -14z m-428 -48 c-3 -2 -16 10 -29 28 l-23 32 29 -27 c15 -15 26 -30 23 -33z m456 -22 c4 -21 3 -33 -4 -33 -6 0 -11 13 -11 29 0 16 -3 38 -6 48 -4 14 -4 15 4 3 5 -8 13 -30 17 -47z m-548 30 c-4 -3 -7 0 -7 7 0 7 3 10 7 7 3 -4 3 -10 0 -14z m190 -25 c-3 -8 -6 -5 -6 6 -1 11 2 17 5 13 3 -3 4 -12 1 -19z m-187 -3 c0 -8 -4 -15 -10 -15 -5 0 -7 7 -4 15 4 8 8 15 10 15 2 0 4 -7 4 -15z m207 -2 c-4 -3 -7 0 -7 7 0 7 3 10 7 7 3 -4 3 -10 0 -14z m203 7 c0 -5 -2 -10 -4 -10 -3 0 -8 5 -11 10 -3 6 -1 10 4 10 6 0 11 -4 11 -10z m-293 -17 c-4 -3 -10 -3 -14 0 -3 4 0 7 7 7 7 0 10 -3 7 -7z m-99 -38 c-3 -3 -9 2 -12 12 -6 14 -5 15 5 6 7 -7 10 -15 7 -18z m172 21 c0 -3 -4 -8 -10 -11 -5 -3 -10 -1 -10 4 0 6 5 11 10 11 6 0 10 -2 10 -4z m-190 -27 c0 -6 -4 -7 -10 -4 -5 3 -10 11 -10 16 0 6 5 7 10 4 6 -3 10 -11 10 -16z m187 -16 c-4 -3 -7 0 -7 7 0 7 3 10 7 7 3 -4 3 -10 0 -14z m250 0 c-4 -3 -7 0 -7 7 0 7 3 10 7 7 3 -4 3 -10 0 -14z m-62 -3 c3 -5 1 -10 -4 -10 -6 0 -11 5 -11 10 0 6 2 10 4 10 3 0 8 -4 11 -10z m-249 -40 c17 0 18 -12 2 -29 -11 -11 -9 -11 9 -2 27 13 44 14 23 1 -10 -6 -11 -10 -2 -10 6 0 12 -5 12 -11 0 -6 -6 -9 -13 -6 -7 3 -19 -4 -25 -14 -14 -22 -9 -24 21 -8 21 11 21 11 5 -7 -20 -23 -27 -60 -12 -57 15 3 24 -42 12 -59 -8 -10 -9 -9 -5 4 4 12 -2 18 -23 23 -25 5 -28 10 -25 35 2 16 6 34 9 39 4 5 2 12 -4 16 -6 4 -8 11 -4 16 3 5 9 7 14 4 4 -3 10 2 13 10 4 10 1 12 -10 8 -13 -5 -15 -2 -10 11 8 20 -15 60 -29 48 -4 -4 -2 2 6 12 15 19 15 19 18 -2 2 -12 10 -22 18 -22z m197 14 c-4 -12 -8 -13 -14 -3 -9 15 -2 32 11 24 5 -3 6 -13 3 -21z m-266 9 c-4 -3 -10 -3 -14 0 -3 4 0 7 7 7 7 0 10 -3 7 -7z m113 -13 c0 -11 -4 -20 -9 -20 -6 0 -9 9 -8 20 1 11 5 20 9 20 4 0 8 -9 8 -20z m93 -4 c7 7 39 -54 35 -66 -2 -5 -14 2 -27 16 -15 16 -18 22 -7 18 12 -5 15 -2 10 10 -4 9 -9 15 -12 12 -9 -10 -43 15 -36 26 5 7 11 6 19 -5 7 -9 15 -14 18 -11z m-176 -33 c-4 -3 -7 0 -7 7 0 7 3 10 7 7 3 -4 3 -10 0 -14z m280 -9 c2 -13 1 -15 -4 -4 -3 8 -11 19 -17 23 -7 6 -6 7 4 4 8 -2 16 -12 17 -23z m140 -8 c0 -7 -6 -13 -13 -13 -7 0 -11 4 -8 9 3 4 0 8 -5 8 -6 0 -11 4 -11 9 0 5 8 7 18 4 10 -2 19 -10 19 -17z m-460 7 c-4 -3 -10 -3 -14 0 -3 4 0 7 7 7 7 0 10 -3 7 -7z m191 -6 c6 -6 12 -19 14 -27 2 -8 7 -18 13 -22 5 -4 7 -9 4 -12 -3 -3 -19 7 -36 23 -18 16 -35 26 -40 22 -4 -3 -1 2 6 12 16 20 25 21 39 4z m-138 -5 c0 -13 -12 -22 -22 -16 -10 6 -1 24 13 24 5 0 9 -4 9 -8z m-65 -32 c3 -5 4 -10 1 -10 -3 0 -8 5 -11 10 -3 6 -4 10 -1 10 3 0 8 -4 11 -10z m-31 -22 c-3 -4 -11 -5 -19 -1 -21 7 -19 12 4 10 11 0 18 -5 15 -9z m59 -8 c3 -11 2 -22 -2 -24 -4 -3 -8 6 -9 20 -2 29 4 31 11 4z m163 -12 c12 16 13 15 11 -4 -1 -23 -16 -25 -39 -6 -8 6 -19 8 -23 4 -5 -4 -5 -1 0 6 6 12 10 11 23 -2 14 -14 17 -14 28 2z m-209 -15 c-4 -3 -7 0 -7 7 0 7 3 10 7 7 3 -4 3 -10 0 -14z m183 -27 c0 -3 -5 -8 -12 -12 -7 -4 -8 -3 -4 4 7 12 16 16 16 8z m-105 -16 c3 -5 4 -10 1 -10 -3 0 -8 5 -11 10 -3 6 -4 10 -1 10 3 0 8 -4 11 -10z m165 3 c0 -5 -5 -15 -10 -23 -7 -12 -12 -12 -22 -2 -9 9 -8 12 6 12 9 0 14 5 11 10 -3 6 -1 10 4 10 6 0 11 -3 11 -7z m-493 -10 c-4 -3 -10 -3 -14 0 -3 4 0 7 7 7 7 0 10 -3 7 -7z m438 -3 c-3 -5 -12 -10 -18 -10 -7 0 -6 4 3 10 19 12 23 12 15 0z m-76 -46 c-8 -9 -5 -11 10 -7 12 3 21 1 21 -3 0 -5 4 -26 9 -47 l9 -37 -35 34 c-31 30 -34 38 -28 66 5 23 10 29 16 19 4 -7 3 -19 -2 -25z m-27 8 c-7 -2 -9 -9 -5 -15 4 -7 -1 -6 -10 2 -18 15 -23 26 -7 16 6 -3 10 -1 10 5 0 6 5 8 12 4 9 -6 9 -9 0 -12z m120 3 c3 0 9 -3 13 -7 9 -9 -16 -5 -32 5 -8 5 -13 3 -13 -4 0 -7 -3 -10 -6 -6 -10 10 7 28 19 20 7 -4 15 -8 19 -8z m-315 -12 c-4 -3 -7 0 -7 7 0 7 3 10 7 7 3 -4 3 -10 0 -14z m140 10 c-4 -3 -10 -3 -14 0 -3 4 0 7 7 7 7 0 10 -3 7 -7z m226 -8 c-3 -9 -8 -14 -10 -11 -3 3 -2 9 2 15 9 16 15 13 8 -4z m-171 -48 c24 -23 88 -137 88 -155 0 -4 -16 17 -36 46 -27 41 -40 52 -54 47 -10 -3 -22 0 -26 6 -4 7 -3 9 4 5 6 -3 15 2 21 12 7 14 5 21 -12 32 -29 19 -49 21 -64 8 -10 -8 -13 -6 -13 6 0 10 4 15 9 11 5 -3 12 -1 15 4 10 16 40 7 68 -22z m-285 6 c-4 -3 -7 0 -7 7 0 7 3 10 7 7 3 -4 3 -10 0 -14z m253 -15 c0 -4 -5 -8 -11 -8 -5 0 -7 -5 -3 -12 4 -7 3 -8 -4 -4 -17 10 -15 33 3 33 8 0 15 -4 15 -9z m-43 -25 c-4 -3 -7 0 -7 7 0 7 3 10 7 7 3 -4 3 -10 0 -14z m180 -15 c-3 -7 -5 -2 -5 12 0 14 2 19 5 13 2 -7 2 -19 0 -25z m10 -40 c-3 -8 -6 -5 -6 6 -1 11 2 17 5 13 3 -3 4 -12 1 -19z m-92 -8 c-3 -11 -2 -20 3 -20 5 0 14 -12 21 -27 11 -25 9 -25 -17 7 -22 25 -27 38 -20 48 15 18 20 15 13 -8z m-205 -67 c0 -19 -3 -24 -10 -17 -6 6 -8 18 -4 27 9 24 14 21 14 -10z m-40 -20 c0 -19 -29 -28 -43 -14 -9 9 -7 10 8 5 17 -7 18 -5 8 7 -10 12 -8 15 8 15 10 0 19 -6 19 -13z m317 0 c-4 -3 -7 0 -7 7 0 7 3 10 7 7 3 -4 3 -10 0 -14z m-507 -3 c0 -5 -7 -7 -15 -4 -8 4 -15 8 -15 10 0 2 7 4 15 4 8 0 15 -4 15 -10z m450 -31 c0 -6 -4 -7 -10 -4 -5 3 -10 11 -10 16 0 6 5 7 10 4 6 -3 10 -11 10 -16z m-380 -1 c0 -9 4 -8 10 2 5 8 10 10 10 4 0 -16 -10 -23 -26 -17 -16 6 -19 23 -4 23 6 0 10 -6 10 -12z m-53 -5 c-4 -3 -10 -3 -14 0 -3 4 0 7 7 7 7 0 10 -3 7 -7z m170 -23 c-1 -10 -4 -17 -8 -14 -4 2 -7 13 -6 24 1 10 4 17 8 14 4 -2 7 -13 6 -24z m30 23 c-4 -3 -10 -3 -14 0 -3 4 0 7 7 7 7 0 10 -3 7 -7z m-57 -9 c0 -8 -19 -13 -24 -6 -3 5 1 9 9 9 8 0 15 -2 15 -3z m80 -14 c-6 -11 -16 -18 -21 -14 -6 3 -3 12 8 20 24 18 26 17 13 -6z m27 -7 c-4 -3 -7 0 -7 7 0 7 3 10 7 7 3 -4 3 -10 0 -14z m-100 -20 c-4 -3 -10 -3 -14 0 -3 4 0 7 7 7 7 0 10 -3 7 -7z m-10 -20 c-4 -3 -10 -3 -14 0 -3 4 0 7 7 7 7 0 10 -3 7 -7z m20 -10 c-4 -3 -7 0 -7 7 0 7 3 10 7 7 3 -4 3 -10 0 -14z m123 -25 c0 -6 -6 -5 -15 2 -8 7 -15 14 -15 16 0 2 7 1 15 -2 8 -4 15 -11 15 -16z m-35 -47 c-6 -5 -25 10 -25 20 0 5 6 4 14 -3 8 -7 12 -15 11 -17z m64 -42 c11 -19 9 -18 -18 2 -36 26 -37 29 -13 22 10 -2 24 -13 31 -24z m-352 -106 c-4 -3 -7 0 -7 7 0 7 3 10 7 7 3 -4 3 -10 0 -14z m59 4 c4 -3 15 -2 26 4 11 6 22 9 24 6 3 -2 -14 -12 -37 -21 -23 -9 -44 -14 -47 -11 -3 3 0 5 8 5 10 0 10 3 1 14 -10 11 -9 14 3 12 9 -1 18 -5 22 -9z"/> <path d="M1043 2696 c4 -10 7 -25 7 -34 0 -14 2 -14 9 -3 12 19 7 44 -9 49 -9 3 -11 -1 -7 -12z"/> <path d="M557 2474 c-6 -10 40 -60 49 -52 3 3 -6 18 -19 33 -13 16 -26 24 -30 19z"/> <path d="M630 1949 c0 -5 5 -7 10 -4 6 3 10 8 10 11 0 2 -4 4 -10 4 -5 0 -10 -5 -10 -11z"/> <path d="M1912 2838 c6 -16 36 -34 44 -25 9 9 -15 37 -33 37 -8 0 -13 -5 -11 -12z m28 -8 c0 -5 -2 -10 -4 -10 -3 0 -8 5 -11 10 -3 6 -1 10 4 10 6 0 11 -4 11 -10z"/> <path d="M2014 2802 c-16 -10 -24 -51 -12 -59 6 -3 9 -2 5 3 -3 5 1 20 9 34 l15 25 -7 -25 c-6 -22 -5 -23 10 -11 14 12 16 12 10 -3 -4 -10 -1 -16 8 -16 20 0 49 -33 51 -58 0 -11 5 -18 9 -16 5 3 6 10 3 15 -8 12 28 -2 37 -15 5 -7 8 -7 8 2 0 6 5 12 11 12 5 0 7 -4 4 -10 -3 -5 0 -10 7 -11 7 0 21 -2 31 -4 9 -2 14 1 11 7 -4 5 7 8 27 6 27 -2 35 -8 37 -27 2 -14 0 -21 -6 -17 -6 4 -13 2 -16 -3 -4 -5 2 -8 11 -7 22 3 29 32 13 51 -7 8 -25 15 -41 15 -19 0 -38 10 -56 30 -15 17 -36 30 -50 30 -12 0 -28 9 -35 20 -15 24 -33 27 -24 4 5 -14 4 -15 -9 -4 -8 7 -12 16 -9 21 3 5 1 9 -5 9 -5 0 -15 2 -23 5 -7 3 -18 1 -24 -3z m126 -72 c0 -5 -8 -10 -17 -10 -15 0 -16 2 -3 10 19 12 20 12 20 0z m36 -10 c5 1 10 -4 12 -10 3 -9 -1 -9 -17 -1 -11 7 -21 17 -21 24 0 8 3 8 9 -1 4 -8 12 -13 17 -12z"/> <path d="M1940 2780 c0 -7 3 -10 7 -7 3 4 3 10 0 14 -4 3 -7 0 -7 -7z"/> <path d="M1847 2738 c-18 -18 -24 -25 -13 -16 12 9 32 21 45 26 15 5 20 11 13 16 -6 4 -26 -8 -45 -26z"/> <path d="M1230 2740 c0 -7 3 -10 7 -7 3 4 3 10 0 14 -4 3 -7 0 -7 -7z"/> <path d="M1320 2740 c0 -7 3 -10 7 -7 3 4 3 10 0 14 -4 3 -7 0 -7 -7z"/> <path d="M1981 2713 c-1 -17 16 -25 25 -12 4 7 3 9 -4 5 -5 -3 -13 0 -15 6 -4 9 -6 10 -6 1z"/> <path d="M1258 2698 c-5 -44 -4 -67 3 -62 5 3 9 16 9 30 0 18 4 23 13 18 8 -5 8 -2 -2 9 -16 20 -20 21 -23 5z"/> <path d="M1353 2688 c-13 -6 -23 -18 -23 -27 1 -14 2 -14 14 1 7 10 15 15 18 13 3 -3 11 1 18 10 14 17 5 18 -27 3z"/> <path d="M2035 2673 c2 -10 4 -20 5 -23 1 -3 2 -9 1 -13 -3 -14 22 -2 27 13 3 7 0 10 -7 6 -7 -5 -11 1 -11 13 0 12 -4 21 -9 21 -5 0 -8 -8 -6 -17z"/> <path d="M1151 2665 c0 -11 4 -27 9 -35 9 -13 10 -13 9 0 0 8 -4 24 -9 35 -9 20 -9 20 -9 0z"/> <path d="M2124 2655 c4 -10 2 -22 -5 -25 -6 -4 0 -7 14 -7 29 0 31 24 2 40 -15 8 -17 7 -11 -8z"/> <path d="M1280 2650 c0 -7 3 -10 7 -7 3 4 3 10 0 14 -4 3 -7 0 -7 -7z"/> <path d="M1995 2649 c-4 -6 -5 -12 -2 -15 2 -3 7 2 10 11 7 17 1 20 -8 4z"/> <path d="M1210 2631 c0 -7 -4 -9 -10 -6 -12 8 -13 -5 -1 -23 6 -10 10 -8 14 9 4 13 4 25 2 28 -3 2 -5 -1 -5 -8z"/> <path d="M1963 2633 c4 -3 10 -3 14 0 3 4 0 7 -7 7 -7 0 -10 -3 -7 -7z"/> <path d="M2325 2630 c-3 -5 -1 -19 5 -31 12 -22 6 -54 -9 -45 -5 3 -11 -1 -15 -9 -3 -8 0 -14 7 -12 7 1 11 -4 9 -11 -1 -8 2 -11 8 -7 16 10 70 12 64 3 -3 -4 -15 -8 -27 -8 -26 0 -62 -19 -37 -20 13 0 13 -1 0 -10 -12 -8 -12 -10 5 -11 11 0 14 -3 7 -6 -6 -2 -10 -9 -6 -14 3 -5 0 -9 -7 -9 -8 0 -9 -3 0 -13 8 -11 6 -18 -9 -32 -11 -10 -20 -24 -20 -32 0 -12 -12 -17 -32 -14 -4 0 -5 -5 -2 -12 2 -7 -2 -30 -11 -50 -14 -34 -17 -36 -31 -22 -8 8 -19 15 -24 15 -5 0 -7 6 -4 14 3 8 12 12 20 9 9 -3 14 2 15 18 0 13 3 18 6 12 2 -7 9 -13 15 -13 6 0 7 8 3 18 -7 16 -15 52 -17 79 -1 10 -4 10 -17 0 -9 -8 -12 -8 -8 -1 4 7 1 14 -6 17 -7 3 -13 -5 -13 -20 -2 -19 2 -24 15 -20 10 2 18 -1 18 -9 0 -7 -5 -10 -10 -7 -14 8 -27 -17 -27 -53 0 -19 -6 -34 -15 -38 -8 -3 -12 -12 -9 -21 3 -8 10 -13 14 -10 5 3 15 -2 23 -10 9 -8 22 -15 29 -15 18 -1 49 -26 41 -34 -4 -4 -8 -14 -9 -22 -1 -9 1 -13 4 -9 4 4 7 11 7 16 0 5 2 8 5 7 3 -2 25 12 48 30 33 27 40 37 33 51 -8 13 0 26 32 57 23 22 59 53 80 69 21 15 36 35 35 44 -2 12 4 15 22 14 24 -3 24 -2 5 9 -23 14 -68 20 -61 9 6 -9 -55 -57 -67 -53 -5 1 -6 -2 -2 -8 4 -7 12 -7 26 0 36 20 20 -11 -31 -59 -46 -44 -54 -48 -51 -28 2 15 -16 6 -37 -18 -22 -26 -42 -33 -42 -15 0 6 7 10 16 10 14 0 14 3 4 15 -11 13 -10 14 4 9 12 -5 16 0 16 20 0 24 13 32 44 27 4 -1 15 4 24 11 12 10 14 10 8 1 -4 -7 -2 -13 3 -13 17 0 13 12 -14 40 -22 23 -23 28 -12 44 12 17 14 17 20 2 4 -11 1 -16 -10 -16 -26 0 -5 -14 23 -16 15 0 31 7 39 19 13 18 13 23 0 37 -19 21 -19 50 0 50 8 0 15 -6 15 -12 0 -9 3 -8 10 2 5 8 5 17 1 20 -4 3 -10 13 -14 23 -3 9 -16 17 -27 17 -12 0 -19 -4 -15 -9 3 -5 1 -12 -5 -16 -9 -6 -14 7 -11 28 0 4 -3 7 -7 7 -5 0 -14 11 -20 25 -12 26 -26 32 -37 15z m20 -10 c3 -5 1 -10 -4 -10 -6 0 -11 5 -11 10 0 6 2 10 4 10 3 0 8 -4 11 -10z m25 -53 c0 -2 -10 -12 -21 -23 -22 -19 -22 -19 -8 4 12 19 29 30 29 19z m-13 -84 c-4 -3 -7 0 -7 7 0 7 3 10 7 7 3 -4 3 -10 0 -14z m114 -66 c-10 -9 -11 -8 -5 6 3 10 9 15 12 12 3 -3 0 -11 -7 -18z m-135 -132 c-3 -14 -1 -23 4 -20 17 10 20 -13 3 -26 -11 -10 -14 -10 -9 -2 5 9 2 11 -7 7 -22 -8 -29 11 -16 40 16 33 31 34 25 1z m-66 -45 c-8 -5 -17 -7 -19 -4 -3 3 1 9 9 14 8 5 17 7 19 4 3 -3 -1 -9 -9 -14z m39 -26 c-9 -11 -15 -11 -25 -3 -10 8 -11 14 -1 24 17 19 42 -2 26 -21z"/> <path d="M2290 2220 c0 -7 3 -10 7 -7 3 4 3 10 0 14 -4 3 -7 0 -7 -7z"/> <path d="M2035 2609 c-4 -5 -8 -21 -9 -33 -2 -19 1 -22 17 -18 14 3 18 1 13 -6 -4 -8 -2 -10 8 -6 20 8 29 34 11 34 -8 0 -15 9 -15 20 0 21 -15 27 -25 9z"/> <path d="M1170 2600 c0 -7 3 -10 7 -7 3 4 3 10 0 14 -4 3 -7 0 -7 -7z"/> <path d="M2283 2595 c0 -8 4 -12 9 -9 5 3 6 10 3 15 -9 13 -12 11 -12 -6z"/> <path d="M2253 2573 c4 -3 10 -3 14 0 3 4 0 7 -7 7 -7 0 -10 -3 -7 -7z"/> <path d="M2160 2550 c0 -7 3 -10 7 -7 3 4 3 10 0 14 -4 3 -7 0 -7 -7z"/> <path d="M2275 2541 c-3 -5 -1 -12 5 -16 5 -3 10 1 10 9 0 18 -6 21 -15 7z"/> <path d="M2493 2519 c9 -6 14 -15 11 -21 -4 -7 -2 -8 5 -4 14 9 -3 36 -23 36 -6 0 -3 -5 7 -11z"/> <path d="M2165 2500 c-3 -5 0 -7 8 -4 8 3 17 -2 20 -10 7 -18 27 -22 27 -5 0 5 -4 8 -9 5 -5 -3 -11 1 -15 9 -6 17 -22 20 -31 5z"/> <path d="M2290 2484 c0 -8 5 -12 10 -9 6 3 10 10 10 16 0 5 -4 9 -10 9 -5 0 -10 -7 -10 -16z"/> <path d="M1100 2460 c-9 -6 -10 -10 -3 -10 6 0 15 5 18 10 8 12 4 12 -15 0z"/> <path d="M1394 2428 c-4 -7 -3 -8 4 -4 12 7 16 16 8 16 -3 0 -8 -5 -12 -12z"/> <path d="M2259 2438 c-6 -22 -5 -37 3 -32 6 4 14 1 18 -6 5 -8 9 -7 13 4 4 9 2 16 -4 16 -6 0 -7 5 -4 10 3 6 -1 10 -9 10 -9 0 -16 -1 -17 -2z"/> <path d="M2577 2418 c6 -7 13 -20 16 -28 4 -10 6 -8 6 6 1 12 -6 25 -15 28 -13 5 -14 3 -7 -6z"/> <path d="M1276 2409 c-3 -8 -12 -40 -21 -73 -17 -60 -30 -64 -37 -11 -4 28 -5 27 -13 -13 -8 -43 -19 -46 -27 -7 -6 27 -14 6 -23 -60 l-7 -50 -14 30 c-12 28 -13 26 -12 -44 2 -110 46 -152 49 -46 0 22 3 33 6 25 2 -8 7 -22 10 -30 3 -8 11 10 19 40 8 30 17 62 20 70 3 8 5 17 4 18 -1 2 7 10 17 17 11 8 22 37 29 77 11 58 11 90 0 57z m-89 -171 c-3 -8 -6 -5 -6 6 -1 11 2 17 5 13 3 -3 4 -12 1 -19z"/> <path d="M2038 2398 c5 -5 16 -8 23 -6 8 3 3 7 -10 11 -17 4 -21 3 -13 -5z"/> <path d="M2533 2393 c4 -3 10 -3 14 0 3 4 0 7 -7 7 -7 0 -10 -3 -7 -7z"/> <path d="M2050 2370 c0 -7 3 -10 7 -7 3 4 3 10 0 14 -4 3 -7 0 -7 -7z"/> <path d="M2103 2363 c4 -3 10 -3 14 0 3 4 0 7 -7 7 -7 0 -10 -3 -7 -7z"/> <path d="M1382 2334 c-96 -48 -149 -144 -139 -254 8 -94 56 -164 141 -207 170 -88 380 40 379 232 0 72 -18 119 -67 173 -77 85 -209 109 -314 56z"/> <path d="M2144 2348 c-5 -7 -3 -8 6 -3 9 6 11 4 6 -4 -5 -7 -15 -10 -23 -7 -8 3 -11 1 -8 -4 4 -6 14 -9 23 -8 10 2 16 -3 14 -10 -1 -8 2 -11 7 -8 14 9 10 56 -5 56 -7 0 -16 -5 -20 -12z"/> <path d="M2340 2356 c0 -2 7 -7 16 -10 8 -3 12 -2 9 4 -6 10 -25 14 -25 6z"/> <path d="M2095 2340 c3 -5 8 -10 11 -10 3 0 2 5 -1 10 -3 6 -8 10 -11 10 -3 0 -2 -4 1 -10z"/> <path d="M2040 2281 c-14 -13 -19 -21 -12 -17 24 14 12 0 -20 -24 -19 -14 -27 -16 -19 -7 7 9 10 17 6 17 -4 0 -2 7 5 15 11 13 9 15 -8 12 -20 -3 -38 -24 -95 -107 -14 -19 -32 -41 -41 -49 -9 -7 -16 -18 -16 -23 0 -5 19 7 42 26 23 20 45 36 50 36 4 0 16 8 26 18 11 9 44 37 75 62 31 25 56 49 57 53 0 5 -4 6 -9 3 -5 -4 -11 -3 -13 1 -1 5 -14 -3 -28 -16z"/> <path d="M2385 2299 c-4 -6 -4 -13 -1 -16 3 -4 6 -1 6 6 0 7 5 9 12 5 7 -4 8 -3 4 4 -9 15 -13 15 -21 1z"/> <path d="M2435 2293 c-18 -14 -18 -15 -2 -9 10 3 23 6 28 6 5 0 9 5 9 10 0 14 -12 12 -35 -7z"/> <path d="M2548 2303 c6 -2 18 -2 25 0 6 3 1 5 -13 5 -14 0 -19 -2 -12 -5z"/> <path d="M2604 2298 c-4 -7 -3 -8 4 -4 12 7 16 16 8 16 -3 0 -8 -5 -12 -12z"/> <path d="M2119 2264 c-8 -27 15 -58 37 -50 14 5 15 4 5 -8 -6 -7 -8 -21 -5 -31 4 -9 2 -20 -5 -24 -8 -5 -5 -13 10 -27 13 -10 19 -14 16 -7 -4 7 1 14 12 18 12 4 18 12 14 20 -3 8 -10 12 -17 9 -6 -3 -3 1 7 9 12 10 15 17 7 22 -6 4 -8 15 -5 24 4 14 0 18 -17 18 -42 1 -47 3 -50 26 -3 21 -4 21 -9 1z m71 -74 c0 -5 -4 -10 -10 -10 -5 0 -10 5 -10 10 0 6 5 10 10 10 6 0 10 -4 10 -10z"/> <path d="M2455 2266 c-11 -7 -41 -25 -68 -38 -64 -34 -104 -87 -112 -146 -3 -26 -8 -58 -11 -72 -4 -14 -7 -50 -9 -80 l-3 -55 7 47 c4 26 11 51 15 55 5 4 6 -2 3 -14 -4 -20 -3 -21 14 -12 13 6 19 6 19 -1 0 -5 -4 -10 -8 -10 -5 0 -14 -12 -21 -27 l-11 -28 21 25 c18 20 21 21 15 5 -5 -11 -10 -47 -13 -79 -5 -64 1 -64 40 -4 11 17 23 25 32 22 10 -4 15 0 15 15 0 21 8 25 43 22 9 -1 17 2 17 6 0 5 11 10 24 11 l24 2 -19 -50 c-22 -58 -24 -86 -6 -93 7 -3 5 -6 -5 -6 -12 -1 -18 -9 -18 -25 0 -24 -3 -33 -54 -136 -15 -30 -26 -60 -25 -65 9 -29 -95 -171 -145 -197 -14 -8 -9 3 17 38 51 68 91 145 72 138 -8 -4 -12 -10 -9 -15 8 -13 -10 -11 -25 4 -11 10 -13 9 -7 -1 5 -8 -3 -14 -23 -18 -36 -7 -38 -12 -14 -30 10 -7 15 -16 11 -20 -4 -4 -14 -2 -21 4 -10 9 -17 8 -27 -1 -10 -10 -12 -9 -7 6 6 15 3 17 -14 12 -18 -6 -20 -4 -15 13 5 14 1 24 -11 32 -16 11 -17 11 0 6 9 -3 17 -1 17 5 0 6 4 7 10 4 6 -4 7 1 3 11 -4 11 -8 13 -11 6 -2 -7 -11 -12 -20 -12 -12 0 -13 3 -4 12 17 17 15 33 -3 18 -8 -6 -18 -9 -24 -6 -18 11 -126 -53 -174 -103 -30 -33 -56 -51 -71 -51 -13 0 -36 -14 -55 -35 -23 -26 -39 -35 -59 -33 -15 1 -41 -6 -59 -15 -18 -9 -38 -17 -46 -17 -8 0 -22 -16 -33 -35 -12 -23 -26 -35 -40 -35 -24 0 -48 -24 -59 -58 -4 -16 -12 -21 -22 -18 -15 6 -84 -9 -115 -25 -10 -5 -23 -9 -30 -9 -6 0 -22 -10 -35 -22 -13 -12 -39 -23 -60 -25 -86 -7 -139 -16 -151 -25 -7 -6 -15 -8 -18 -6 -8 9 47 48 66 48 10 0 34 7 54 15 20 9 41 13 47 9 6 -3 28 6 50 22 22 15 42 24 45 21 4 -3 18 0 33 7 14 8 41 17 60 21 19 4 51 24 72 44 88 85 180 141 232 141 11 0 37 16 58 35 22 19 47 35 57 35 10 0 35 17 56 39 l38 38 -26 52 c-55 108 -186 205 -314 232 -32 6 -93 9 -140 6 -199 -12 -374 -164 -423 -367 -22 -91 -15 -247 17 -375 2 -11 -5 -3 -16 17 -73 134 -62 358 25 514 l35 63 -42 12 c-55 15 -145 5 -202 -22 -62 -29 -129 -103 -155 -172 -34 -92 -32 -98 59 -167 43 -33 98 -83 122 -111 152 -182 173 -200 323 -284 66 -37 111 -64 100 -60 -11 4 -32 11 -47 15 -15 5 -91 40 -170 79 -78 39 -148 69 -156 66 -7 -2 -10 0 -7 5 3 5 -14 19 -37 31 -24 12 -54 31 -68 43 -24 20 -24 20 -7 0 9 -11 14 -24 10 -27 -3 -4 -1 -7 6 -7 7 0 11 -6 8 -14 -3 -8 2 -17 11 -21 15 -6 14 -8 -6 -16 -25 -10 -38 -8 -34 4 1 5 -2 6 -7 3 -5 -4 -12 0 -14 6 -4 8 -6 9 -6 2 -1 -13 82 -84 97 -84 5 0 12 -7 16 -15 3 -8 12 -15 21 -15 8 0 15 -4 15 -9 0 -5 -12 -9 -27 -9 -49 1 -64 -2 -59 -11 7 -10 62 -22 125 -27 62 -4 60 -10 -7 -22 -55 -10 -81 -7 -150 13 -16 6 -22 3 -22 -9 0 -10 -6 -13 -15 -10 -8 4 -15 10 -15 16 0 5 5 6 10 3 6 -3 10 -1 10 4 0 6 -12 11 -27 12 l-28 1 27 11 26 10 -36 19 c-20 10 -44 18 -53 18 -9 0 -22 7 -29 16 -12 13 -8 14 38 8 37 -5 52 -3 52 5 0 6 -8 15 -18 18 -9 4 -23 15 -30 25 -7 10 -20 18 -28 18 -8 0 -12 5 -9 10 3 6 1 10 -6 10 -7 0 -10 2 -7 5 3 3 18 -1 34 -10 16 -8 35 -15 42 -15 21 0 -45 78 -82 97 -18 9 -26 18 -18 21 7 2 20 -2 29 -10 15 -11 16 -11 8 7 -4 11 -16 43 -26 70 -33 95 -56 127 -105 151 -38 18 -44 19 -39 5 5 -12 4 -13 -6 -4 -6 7 -26 10 -43 7 l-31 -4 35 14 35 14 -55 1 c-39 0 -49 -3 -35 -9 18 -8 18 -9 2 -9 -10 -1 -21 7 -24 17 -9 24 -25 33 -47 26 -12 -4 -16 -2 -12 5 4 6 0 11 -8 11 -9 0 -16 -5 -16 -11 0 -7 -10 -9 -25 -6 -14 2 -23 2 -20 -1 3 -4 -9 -13 -27 -22 -18 -8 -33 -22 -33 -30 0 -8 -6 -19 -12 -23 -30 -19 -82 -165 -74 -207 1 -8 2 -28 1 -43 0 -18 13 -48 35 -78 22 -31 35 -61 35 -80 0 -17 9 -42 20 -56 11 -14 20 -31 20 -37 0 -6 14 -19 30 -28 20 -12 30 -25 30 -41 0 -34 56 -106 91 -119 24 -8 30 -17 35 -50 6 -32 12 -42 35 -50 15 -5 34 -23 42 -40 14 -28 28 -40 87 -70 14 -7 29 -18 33 -25 4 -7 18 -13 31 -13 13 0 31 -10 42 -21 16 -18 27 -20 73 -16 63 7 69 11 48 35 -10 10 -17 26 -17 34 0 9 -6 34 -14 56 -13 35 -13 47 0 88 16 55 35 78 102 124 l47 32 -57 -54 c-46 -42 -60 -62 -68 -98 -12 -56 -13 -83 -1 -76 5 3 9 -13 9 -36 1 -46 17 -72 32 -48 12 19 24 -30 17 -67 -7 -37 0 -51 34 -69 16 -8 29 -21 29 -29 0 -8 9 -15 20 -15 11 0 28 -10 38 -21 34 -42 44 -49 66 -49 13 0 29 -7 36 -15 7 -8 22 -15 34 -15 11 0 34 -11 50 -25 20 -17 36 -23 52 -19 15 4 34 0 49 -10 20 -13 33 -15 58 -8 20 6 42 5 57 0 17 -7 41 -6 71 2 25 6 67 10 95 10 27 -1 84 1 127 4 65 5 84 10 109 31 16 14 36 25 43 25 12 0 37 18 122 87 35 28 33 46 -5 50 -24 2 -31 -1 -26 -10 4 -7 2 -7 -7 2 -11 10 -11 15 -1 18 6 3 12 12 12 22 0 9 6 23 13 31 10 12 9 12 -5 1 -16 -12 -19 -10 -27 10 -6 17 -5 26 4 29 15 6 11 34 -9 65 -20 31 -21 45 -1 19 8 -10 15 -14 15 -9 1 6 3 20 6 32 3 19 0 21 -29 17 l-32 -3 28 10 c15 6 27 15 27 20 0 6 -5 7 -11 3 -7 -4 -10 -1 -7 7 3 8 11 13 17 11 8 -1 7 7 -3 26 -12 24 -13 29 -1 29 8 0 12 -4 9 -9 -3 -4 0 -8 5 -8 19 0 12 16 -30 64 -52 58 -35 61 19 2 83 -90 121 -178 122 -278 0 -34 4 -39 37 -53 36 -15 108 -21 148 -13 11 2 42 14 68 26 27 12 59 22 71 22 12 0 33 11 46 25 13 14 29 25 36 25 7 0 18 9 24 20 6 11 25 23 43 28 20 5 37 18 45 35 7 14 38 46 68 69 40 32 57 53 65 80 6 26 19 43 38 53 20 10 35 30 47 62 9 27 28 58 41 71 13 13 23 35 23 51 0 16 10 41 21 56 26 32 40 157 17 153 -7 -2 -12 5 -12 14 1 10 -2 15 -7 12 -5 -3 -9 3 -9 12 0 10 -3 14 -7 10 -10 -10 -13 -37 -3 -31 11 7 7 -22 -5 -32 -4 -4 -6 -3 -3 2 6 10 -15 36 -29 35 -8 0 -8 5 -4 30 0 6 6 10 12 10 8 0 7 -5 -1 -15 -7 -9 -10 -18 -7 -21 3 -3 13 9 22 27 16 30 16 32 0 25 -56 -21 -137 -13 -220 24 -22 9 -47 20 -55 24 -8 3 1 3 20 0 19 -3 43 -6 53 -6 9 1 15 -3 12 -7 -2 -5 30 -11 73 -13 80 -6 114 4 104 30 -4 11 -1 13 8 7 10 -6 12 -4 7 10 -6 14 -3 16 13 12 11 -3 20 -1 20 4 0 5 -11 9 -25 9 -15 0 -25 6 -25 15 0 9 -6 12 -17 9 -12 -4 -10 1 7 16 l25 21 -32 -6 c-21 -4 -33 -3 -33 4 0 6 5 11 10 11 6 0 10 7 10 16 0 13 -8 15 -35 12 -33 -4 -34 -3 -18 14 18 20 28 24 17 6 -4 -7 -3 -8 4 -4 7 4 12 14 12 22 0 8 4 13 9 9 5 -3 12 -1 15 4 7 11 -22 23 -35 15 -5 -3 -7 -9 -5 -13 3 -4 -8 -8 -24 -9 -37 -3 -57 27 -38 58 15 23 33 27 24 5 -4 -12 0 -14 22 -9 19 4 23 3 13 -4 -8 -6 -9 -12 -3 -16 5 -3 15 0 21 8 9 11 9 15 0 18 -8 3 -8 8 3 18 21 22 29 48 15 53 -7 2 -8 8 -4 13 10 11 28 -17 22 -34 -3 -9 1 -12 13 -10 9 2 17 10 17 18 1 8 6 14 12 13 6 -1 9 6 6 17 -6 23 -14 25 -31 8 -8 -8 -12 -9 -12 -1 0 6 12 16 28 21 15 6 21 11 15 11 -24 2 -13 21 12 21 14 0 25 5 25 11 0 6 6 9 14 6 8 -3 17 -1 19 6 3 9 8 9 20 -1 13 -11 16 -10 22 7 3 12 11 21 17 21 6 0 6 6 -2 15 -7 8 -17 12 -23 8 -5 -3 -7 -1 -3 5 3 5 0 13 -6 15 -7 3 -3 6 9 6 16 1 21 7 20 24 -1 12 -7 28 -14 35 -7 7 -13 20 -13 28 0 8 -4 14 -10 14 -5 0 -6 9 -2 23 12 36 8 62 -9 59 -12 -1 -16 9 -18 45 -2 52 -19 73 -58 73 -21 0 -28 -13 -25 -42 1 -3 -4 -8 -12 -11 -7 -3 -13 1 -13 9 0 8 4 14 9 14 4 0 8 5 8 10 0 15 -26 12 -62 -8 -33 -19 -33 -18 -57 4 -15 14 -21 28 -17 39 5 15 2 17 -26 11 -24 -4 -29 -3 -18 4 12 7 12 10 1 10 -9 0 -11 8 -6 28 13 51 14 63 4 57 -5 -4 -7 -10 -5 -14 3 -4 -1 -8 -9 -8 -10 0 -11 5 -5 17 5 10 7 20 4 23 -3 2 7 14 22 26 16 13 21 21 13 22 -22 2 -33 5 -51 13 -16 7 -16 10 5 28 12 11 16 17 10 13 -7 -3 -25 1 -40 10 l-28 16 40 -5 c23 -3 46 -2 52 2 19 12 -77 13 -98 1 -13 -6 -19 -6 -19 1 0 14 -22 13 -45 -4z m95 -40 c0 -3 -5 -8 -12 -12 -7 -4 -8 -3 -4 4 7 12 16 16 16 8z m185 -276 c3 -5 1 -10 -4 -10 -6 0 -11 5 -11 10 0 6 2 10 4 10 3 0 8 -4 11 -10z m-278 -217 c-4 -3 -7 0 -7 7 0 7 3 10 7 7 3 -4 3 -10 0 -14z m388 7 c-3 -5 -10 -10 -16 -10 -5 0 -9 5 -9 10 0 6 7 10 16 10 8 0 12 -4 9 -10z m-158 -27 c-4 -3 -10 -3 -14 0 -3 4 0 7 7 7 7 0 10 -3 7 -7z m186 0 c-7 -2 -21 -2 -30 0 -10 3 -4 5 12 5 17 0 24 -2 18 -5z m-192 -71 c-7 -2 -18 1 -23 6 -8 8 -4 9 13 5 13 -4 18 -8 10 -11z m196 2 c-3 -3 -12 -4 -19 -1 -8 3 -5 6 6 6 11 1 17 -2 13 -5z m-207 -29 c6 3 23 1 39 -6 25 -11 27 -15 14 -27 -12 -12 -17 -12 -26 -2 -9 10 -9 11 2 5 9 -5 12 -3 10 4 -3 7 -8 12 -12 12 -4 -1 -16 -1 -28 -1 -13 0 -18 -4 -13 -12 5 -7 3 -8 -5 -4 -7 5 -10 11 -7 14 3 3 -2 15 -11 26 -18 21 -18 21 4 3 12 -11 27 -16 33 -12z m-70 -6 c0 -5 4 -8 9 -5 5 3 14 -8 20 -26 6 -17 14 -28 17 -25 4 3 13 0 21 -8 11 -11 19 -12 33 -5 16 8 18 8 14 -5 -4 -8 -16 -15 -28 -15 -12 0 -27 -5 -32 -10 -7 -7 -14 2 -23 30 -7 23 -18 43 -26 46 -16 7 -28 34 -15 34 6 0 10 -5 10 -11z m147 5 c-3 -3 -12 -4 -19 -1 -8 3 -5 6 6 6 11 1 17 -2 13 -5z m-1222 -25 c5 -5 26 -9 46 -9 21 0 41 -5 45 -11 4 -7 27 -9 63 -6 46 4 64 0 99 -19 23 -13 49 -24 56 -24 16 0 69 -40 62 -47 -2 -3 -14 1 -26 7 -12 7 -20 8 -16 2 3 -5 -3 -12 -14 -15 -22 -6 -28 17 -7 27 6 3 0 4 -15 2 -15 -1 -25 1 -22 5 8 13 -74 31 -113 24 -26 -4 -44 0 -69 15 -25 16 -38 19 -53 11 -14 -8 -22 -7 -31 4 -7 8 -16 13 -20 10 -4 -3 -21 0 -38 6 -27 9 -35 6 -86 -32 -31 -23 -56 -45 -56 -49 0 -4 -10 -12 -22 -19 -81 -42 -124 -92 -128 -151 -2 -19 -3 -20 -7 -7 -3 10 1 38 8 63 11 36 24 52 69 83 30 22 69 56 87 75 18 20 35 36 39 36 3 0 17 9 30 19 18 15 34 18 67 14 23 -3 46 -9 52 -14z m-78 -26 c-4 -3 -10 -3 -14 0 -3 4 0 7 7 7 7 0 10 -3 7 -7z m1145 -46 c-7 -8 -9 -17 -5 -20 3 -4 2 -7 -4 -7 -6 0 -16 7 -23 15 -11 13 -10 14 4 9 10 -4 18 0 22 10 4 9 9 15 12 12 3 -3 0 -12 -6 -19z m-502 3 c0 -5 -6 -13 -13 -17 -8 -4 -19 -17 -25 -28 -11 -20 -11 -20 -12 0 0 14 -3 16 -11 8 -7 -7 -8 -17 -2 -28 9 -16 11 -16 26 0 19 19 22 13 6 -16 -5 -11 -15 -17 -21 -13 -6 4 -8 -1 -3 -15 5 -16 2 -21 -13 -21 -29 0 -34 -11 -15 -33 10 -11 12 -17 6 -13 -8 4 -13 1 -13 -8 0 -10 -6 -13 -15 -10 -10 4 -15 0 -15 -11 0 -10 5 -13 12 -9 8 5 9 2 5 -10 -4 -10 -7 -23 -8 -29 -1 -7 -4 -1 -8 13 -4 14 -14 24 -21 22 -11 -3 -11 0 0 13 11 13 11 16 0 13 -7 -2 -14 2 -17 8 -2 7 2 12 9 11 33 -1 49 4 43 13 -4 6 -15 8 -25 5 -10 -3 -22 0 -26 6 -5 8 -3 9 5 4 19 -11 53 29 38 45 -9 9 -9 11 -1 7 7 -4 14 0 17 7 3 8 1 16 -4 18 -16 5 2 38 21 38 10 0 28 9 41 20 26 21 39 25 39 10z m32 -37 c20 -18 24 -33 8 -33 -5 0 -10 7 -10 15 0 8 -7 15 -15 15 -8 0 -15 5 -15 10 0 15 11 12 32 -7z m610 0 c-6 -3 -10 -9 -6 -14 3 -5 -2 -9 -10 -9 -22 0 -20 28 2 32 20 5 32 -3 14 -9z m-75 0 c-4 -3 -10 -3 -14 0 -3 4 0 7 7 7 7 0 10 -3 7 -7z m-119 -17 c-7 -8 -15 -12 -17 -11 -5 6 10 25 20 25 5 0 4 -6 -3 -14z m122 -12 c0 -2 -7 -4 -15 -4 -8 0 -15 4 -15 10 0 5 7 7 15 4 8 -4 15 -8 15 -10z m-39 -26 c15 -21 17 -28 7 -20 -10 8 -23 10 -30 6 -10 -6 -11 -5 -1 7 10 12 10 18 1 27 -7 7 -9 12 -6 12 4 0 17 -15 29 -32z m-31 7 c0 -12 -19 -12 -23 0 -4 9 -1 12 9 8 7 -3 14 -7 14 -8z m-40 1 c0 -2 -9 -6 -20 -9 -11 -3 -18 -1 -14 4 5 9 34 13 34 5z m-598 -13 c-10 -4 -10 -8 -1 -19 10 -12 7 -14 -12 -12 -18 2 -24 -2 -23 -14 1 -10 -2 -18 -7 -18 -14 0 -11 18 7 45 9 14 24 25 33 24 11 0 12 -2 3 -6z m212 -58 c-3 -7 -12 -16 -19 -19 -11 -4 -12 0 -3 19 11 25 31 25 22 0z m-312 -3 c-7 -2 -12 -11 -12 -20 0 -12 -3 -13 -11 -5 -13 13 10 45 26 35 5 -3 4 -7 -3 -10z m35 11 c-4 -3 -10 -3 -14 0 -3 4 0 7 7 7 7 0 10 -3 7 -7z m798 -3 c3 -5 1 -10 -4 -10 -6 0 -11 5 -11 10 0 6 2 10 4 10 3 0 8 -4 11 -10z m-2425 -4 c0 -3 -5 -8 -12 -12 -7 -4 -8 -3 -4 4 7 12 16 16 16 8z m1835 -16 c3 -5 1 -10 -4 -10 -6 0 -11 5 -11 10 0 6 2 10 4 10 3 0 8 -4 11 -10z m445 0 c0 -5 -5 -10 -11 -10 -5 0 -7 5 -4 10 3 6 8 10 11 10 2 0 4 -4 4 -10z m-2323 -17 c-4 -3 -7 0 -7 7 0 7 3 10 7 7 3 -4 3 -10 0 -14z m138 7 c3 -5 4 -10 1 -10 -3 0 -8 5 -11 10 -3 6 -4 10 -1 10 3 0 8 -4 11 -10z m2348 -7 c11 4 13 0 10 -13 -5 -17 -6 -17 -24 -2 -10 9 -19 21 -19 27 0 5 4 4 9 -4 5 -8 16 -11 24 -8z m-2433 3 c0 -3 -4 -8 -10 -11 -5 -3 -10 -1 -10 4 0 6 5 11 10 11 6 0 10 -2 10 -4z m1607 -13 c-4 -3 -7 0 -7 7 0 7 3 10 7 7 3 -4 3 -10 0 -14z m200 -20 c-4 -3 -7 0 -7 7 0 7 3 10 7 7 3 -4 3 -10 0 -14z m560 -10 c-4 -3 -7 0 -7 7 0 7 3 10 7 7 3 -4 3 -10 0 -14z m53 7 c0 -5 -5 -10 -11 -10 -5 0 -7 5 -4 10 3 6 8 10 11 10 2 0 4 -4 4 -10z m-748 -24 c7 4 7 0 0 -12 -6 -11 -8 -31 -5 -45 3 -15 -2 -39 -11 -55 -16 -28 -16 -27 -12 41 6 96 7 104 13 82 2 -9 9 -14 15 -11z m634 2 c2 -14 -1 -16 -16 -8 -9 5 -20 6 -24 2 -4 -3 -4 2 0 11 8 22 36 18 40 -5z m-686 -21 c0 -4 -6 -2 -14 5 -8 7 -12 17 -9 22 5 8 23 -12 23 -27z m127 11 c-3 -8 -6 -5 -6 6 -1 11 2 17 5 13 3 -3 4 -12 1 -19z m50 5 c-4 -3 -7 0 -7 7 0 7 3 10 7 7 3 -4 3 -10 0 -14z m658 -3 c3 -5 4 -10 1 -10 -3 0 -8 5 -11 10 -3 6 -4 10 -1 10 3 0 8 -4 11 -10z m-2126 -44 c9 -11 9 -16 -1 -22 -7 -4 -10 -4 -6 1 4 4 3 14 -3 22 -6 7 -9 13 -6 13 2 0 10 -6 16 -14z m1238 -23 c-4 -3 -7 0 -7 7 0 7 3 10 7 7 3 -4 3 -10 0 -14z m164 -10 c-12 -20 -14 -14 -5 12 4 9 9 14 11 11 3 -2 0 -13 -6 -23z m-1364 -36 c4 -7 0 -8 -11 -4 -10 4 -22 7 -27 7 -5 0 -9 4 -9 9 0 12 38 2 47 -12z m1240 6 c-4 -3 -7 0 -7 7 0 7 3 10 7 7 3 -4 3 -10 0 -14z m-99 -54 c-3 -20 -5 -19 -9 9 -3 20 -2 29 4 23 5 -5 7 -19 5 -32z m-36 13 c-7 -2 -12 -13 -12 -24 0 -12 -3 -19 -6 -15 -11 11 6 58 18 51 9 -6 9 -9 0 -12z m118 -13 c0 -5 -4 -9 -10 -9 -5 0 -10 7 -10 16 0 8 5 12 10 9 6 -3 10 -10 10 -16z m-63 -11 c-3 -8 -6 -5 -6 6 -1 11 2 17 5 13 3 -3 4 -12 1 -19z m-1422 -29 c11 -16 1 -19 -13 -3 -7 8 -8 14 -3 14 5 0 13 -5 16 -11z m295 -9 c18 -12 2 -12 -25 0 -13 6 -15 9 -5 9 8 0 22 -4 30 -9z m-240 -15 c0 -8 -2 -15 -4 -15 -2 0 -6 7 -10 15 -3 8 -1 15 4 15 6 0 10 -7 10 -15z m275 -5 c3 -5 4 -10 1 -10 -3 0 -8 5 -11 10 -3 6 -4 10 -1 10 3 0 8 -4 11 -10z m215 -25 c0 -3 -10 -3 -22 -1 -13 3 -26 5 -29 5 -3 1 -6 7 -6 15 0 13 4 13 29 0 15 -8 28 -17 28 -19z m-683 18 c-4 -3 -10 -3 -14 0 -3 4 0 7 7 7 7 0 10 -3 7 -7z m2623 -3 c0 -5 -2 -10 -4 -10 -3 0 -8 5 -11 10 -3 6 -1 10 4 10 6 0 11 -4 11 -10z m-45 -20 c3 -5 4 -10 1 -10 -3 0 -8 5 -11 10 -3 6 -4 10 -1 10 3 0 8 -4 11 -10z m-2488 -32 c-3 -8 -6 -5 -6 6 -1 11 2 17 5 13 3 -3 4 -12 1 -19z m349 -3 c18 -14 17 -14 -13 -15 -31 0 -49 11 -36 24 10 10 28 7 49 -9z m-386 -5 c-8 -5 -19 -10 -25 -10 -5 0 -3 5 5 10 8 5 20 10 25 10 6 0 3 -5 -5 -10z m587 3 c-4 -3 1 -12 11 -19 13 -10 14 -12 2 -11 -35 5 -51 37 -18 37 6 0 8 -3 5 -7z m1428 -3 c-11 -5 -27 -9 -35 -9 -13 -1 -13 0 0 9 8 5 24 9 35 9 20 0 20 0 0 -9z m-1935 -5 c0 -2 -14 -12 -31 -21 -17 -8 -28 -11 -24 -4 4 6 17 15 29 20 27 11 26 11 26 5z m1955 -25 c3 -5 4 -10 1 -10 -3 0 -8 5 -11 10 -3 6 -4 10 -1 10 3 0 8 -4 11 -10z m42 3 c-4 -3 -10 -3 -14 0 -3 4 0 7 7 7 7 0 10 -3 7 -7z m-1983 -12 c4 -5 -3 -7 -14 -4 -23 6 -26 13 -6 13 8 0 17 -4 20 -9z m1889 2 c-7 -2 -19 -2 -25 0 -7 3 -2 5 12 5 14 0 19 -2 13 -5z m-46 -10 c-4 -3 -10 -3 -14 0 -3 4 0 7 7 7 7 0 10 -3 7 -7z m-1847 -27 c0 -3 -4 -8 -10 -11 -5 -3 -10 -1 -10 4 0 6 5 11 10 11 6 0 10 -2 10 -4z m345 -6 c3 -5 4 -10 1 -10 -3 0 -8 5 -11 10 -3 6 -4 10 -1 10 3 0 8 -4 11 -10z m268 -1 c7 0 3 -4 -8 -8 -22 -9 -35 -5 -35 11 0 5 7 7 16 4 9 -3 21 -6 27 -7z m-653 -3 c0 -3 -4 -8 -10 -11 -5 -3 -10 -1 -10 4 0 6 5 11 10 11 6 0 10 -2 10 -4z m335 -27 c-4 -5 -12 -9 -18 -8 -9 0 -8 2 1 6 6 2 9 10 6 15 -4 7 -2 8 5 4 6 -4 9 -12 6 -17z m1449 -49 c-34 -21 -75 -42 -90 -45 -16 -4 -42 -13 -59 -20 -91 -39 -111 -46 -152 -52 -29 -4 -42 -10 -39 -18 3 -9 -2 -11 -20 -6 -13 3 -25 10 -26 16 -2 5 -25 17 -52 26 -26 9 -58 26 -70 38 l-21 22 49 -22 c32 -14 59 -19 80 -15 23 5 27 3 16 -5 -11 -7 7 -9 66 -6 60 2 90 9 115 25 19 11 57 26 84 33 28 7 75 25 105 40 79 40 85 35 14 -11z m-1487 3 c-4 -3 -7 0 -7 7 0 7 3 10 7 7 3 -4 3 -10 0 -14z m83 -17 c0 -3 -4 -8 -10 -11 -5 -3 -10 -1 -10 4 0 6 5 11 10 11 6 0 10 -2 10 -4z m294 -6 c-6 -6 -21 -6 -39 -1 -30 9 -30 9 10 10 25 1 36 -2 29 -9z m1416 6 c0 -3 -5 -8 -12 -12 -7 -4 -8 -3 -4 4 7 12 16 16 16 8z m-1690 -21 c-14 -8 -29 -14 -35 -14 -5 0 1 6 15 14 14 8 30 14 35 14 6 0 -1 -6 -15 -14z m60 6 c0 -6 -4 -12 -8 -15 -5 -3 -9 1 -9 9 0 8 4 15 9 15 4 0 8 -4 8 -9z m190 -15 c0 -3 -5 -8 -12 -12 -7 -4 -8 -3 -4 4 7 12 16 16 16 8z m-210 -30 c0 -3 -5 -8 -12 -12 -7 -4 -8 -3 -4 4 7 12 16 16 16 8z m-340 -30 c0 -3 -5 -8 -12 -12 -7 -4 -8 -3 -4 4 7 12 16 16 16 8z m1130 -60 c-7 -7 -10 1 -9 25 0 32 1 33 10 10 6 -16 6 -28 -1 -35z m-1160 40 c0 -3 -5 -8 -12 -12 -7 -4 -8 -3 -4 4 7 12 16 16 16 8z m1107 -28 c-3 -7 -5 -2 -5 12 0 14 2 19 5 13 2 -7 2 -19 0 -25z m-30 -5 c-4 -3 -7 0 -7 7 0 7 3 10 7 7 3 -4 3 -10 0 -14z m180 -15 c-3 -8 -6 -5 -6 6 -1 11 2 17 5 13 3 -3 4 -12 1 -19z m111 -3 c-3 -3 -9 2 -12 12 -6 14 -5 15 5 6 7 -7 10 -15 7 -18z m-261 -27 c-3 -7 -5 -2 -5 12 0 14 2 19 5 13 2 -7 2 -19 0 -25z m-23 -77 c-7 -8 -24 81 -17 92 5 7 10 -8 14 -38 3 -27 5 -52 3 -54z m271 89 c3 -5 4 -10 1 -10 -3 0 -8 5 -11 10 -3 6 -4 10 -1 10 3 0 8 -4 11 -10z m-179 -9 c-4 -5 -2 -21 4 -35 5 -14 6 -26 1 -26 -5 0 -11 12 -14 27 -5 27 -1 43 9 43 3 0 3 -4 0 -9z m214 5 c0 -3 -5 -8 -12 -12 -7 -4 -8 -3 -4 4 7 12 16 16 16 8z m25 -6 c-3 -6 1 -17 9 -26 11 -10 16 -12 16 -3 0 7 3 10 6 6 10 -10 -6 -26 -21 -21 -23 9 -30 54 -9 54 3 0 2 -5 -1 -10z m-80 -10 c3 -5 4 -10 1 -10 -3 0 -8 5 -11 10 -3 6 -4 10 -1 10 3 0 8 -4 11 -10z m-278 -47 c-4 -3 -7 0 -7 7 0 7 3 10 7 7 3 -4 3 -10 0 -14z m50 -15 c-3 -8 -6 -5 -6 6 -1 11 2 17 5 13 3 -3 4 -12 1 -19z m-700 -55 c-4 -3 -7 0 -7 7 0 7 3 10 7 7 3 -4 3 -10 0 -14z m663 -3 c0 -5 -7 -10 -16 -10 -8 0 -12 5 -9 10 3 6 10 10 16 10 5 0 9 -4 9 -10z m-223 -37 c-4 -3 -7 0 -7 7 0 7 3 10 7 7 3 -4 3 -10 0 -14z m-390 -70 c-4 -3 -7 0 -7 7 0 7 3 10 7 7 3 -4 3 -10 0 -14z m1008 -33 c-3 -5 -2 -10 3 -10 6 0 12 -6 15 -13 3 -8 -1 -14 -9 -14 -15 0 -27 24 -18 38 3 5 7 9 10 9 3 0 2 -4 -1 -10z m-818 -27 c-4 -3 -7 0 -7 7 0 7 3 10 7 7 3 -4 3 -10 0 -14z m760 0 c-4 -3 -7 0 -7 7 0 7 3 10 7 7 3 -4 3 -10 0 -14z m-640 -20 c-4 -3 -7 0 -7 7 0 7 3 10 7 7 3 -4 3 -10 0 -14z m712 -63 c0 -10 -3 -8 -9 5 -12 27 -12 43 0 25 5 -8 9 -22 9 -30z m-82 3 c-4 -3 -7 0 -7 7 0 7 3 10 7 7 3 -4 3 -10 0 -14z m-586 -26 c-10 -9 -11 -8 -5 6 3 10 9 15 12 12 3 -3 0 -11 -7 -18z m466 -4 c-4 -3 -7 0 -7 7 0 7 3 10 7 7 3 -4 3 -10 0 -14z m163 -29 c0 -7 -5 -16 -12 -20 -7 -4 -8 -3 -4 4 4 6 1 22 -5 34 -11 21 -11 22 4 9 10 -7 17 -19 17 -27z m-130 -9 c0 -5 -5 -3 -10 5 -5 8 -10 20 -10 25 0 6 5 3 10 -5 5 -8 10 -19 10 -25z m147 8 c-4 -3 -7 0 -7 7 0 7 3 10 7 7 3 -4 3 -10 0 -14z"/> <path d="M2005 1421 c-6 -11 13 -26 22 -17 4 3 1 6 -6 6 -7 0 -9 5 -6 10 3 6 4 10 1 10 -3 0 -7 -4 -11 -9z"/> <path d="M633 973 c4 -3 10 -3 14 0 3 4 0 7 -7 7 -7 0 -10 -3 -7 -7z"/> <path d="M2080 2254 c0 -6 -20 -23 -45 -38 -58 -37 -79 -61 -41 -46 15 5 37 15 49 21 19 9 19 7 -3 -10 l-25 -21 30 10 c35 13 55 29 55 42 0 6 -8 7 -17 4 -15 -5 -15 -3 1 9 16 12 17 18 8 27 -7 7 -12 8 -12 2z"/> <path d="M2150 2250 c0 -7 3 -10 7 -7 3 4 3 10 0 14 -4 3 -7 0 -7 -7z"/> <path d="M1030 2230 c0 -7 3 -10 7 -7 3 4 3 10 0 14 -4 3 -7 0 -7 -7z"/> <path d="M2603 2223 c4 -3 10 -3 14 0 3 4 0 7 -7 7 -7 0 -10 -3 -7 -7z"/> <path d="M2698 2223 c7 -3 16 -2 19 1 4 3 -2 6 -13 5 -11 0 -14 -3 -6 -6z"/> <path d="M1030 2200 c0 -7 3 -10 7 -7 3 4 3 10 0 14 -4 3 -7 0 -7 -7z"/> <path d="M2683 2203 c4 -3 10 -3 14 0 3 4 0 7 -7 7 -7 0 -10 -3 -7 -7z"/> <path d="M2730 2189 c0 -5 5 -7 10 -4 6 3 10 8 10 11 0 2 -4 4 -10 4 -5 0 -10 -5 -10 -11z"/> <path d="M2087 2164 c-3 -3 -30 -10 -59 -14 l-53 -9 57 3 c31 1 55 -1 52 -5 -2 -4 6 -11 18 -14 13 -4 31 -14 40 -22 15 -13 16 -13 14 2 -1 9 -9 20 -16 25 -11 7 -11 11 -1 24 12 14 10 16 -16 16 -16 0 -32 -3 -36 -6z m30 -21 c-4 -3 -10 -3 -14 0 -3 4 0 7 7 7 7 0 10 -3 7 -7z"/> <path d="M2240 2135 c-7 -8 -16 -12 -21 -9 -5 3 -9 -2 -9 -11 0 -9 -4 -13 -10 -10 -5 3 -10 1 -10 -4 0 -19 15 -12 45 19 16 17 26 30 23 30 -3 0 -11 -7 -18 -15z"/> <path d="M2625 2140 c3 -5 8 -10 11 -10 3 0 2 5 -1 10 -3 6 -8 10 -11 10 -3 0 -2 -4 1 -10z"/> <path d="M2788 2119 c2 -16 7 -31 11 -34 4 -2 5 9 3 26 -2 16 -7 31 -11 34 -4 2 -5 -9 -3 -26z"/> <path d="M924 2089 c-47 -13 -109 -81 -124 -133 -52 -188 184 -328 334 -197 65 57 75 188 20 258 -56 70 -143 97 -230 72z"/> <path d="M1800 2076 c0 -14 4 -27 8 -30 5 -3 6 8 4 25 -5 35 -12 38 -12 5z"/> <path d="M1919 2080 c-107 -57 -140 -191 -70 -287 56 -77 170 -104 251 -61 146 79 145 274 -2 349 -49 25 -131 24 -179 -1z"/> <path d="M2654 2076 c5 -15 2 -17 -19 -12 -19 5 -23 3 -19 -9 7 -18 15 -19 37 -2 13 9 14 16 6 27 -9 12 -10 12 -5 -4z"/> <path d="M2825 2060 c3 -5 8 -10 11 -10 3 0 2 5 -1 10 -3 6 -8 10 -11 10 -3 0 -2 -4 1 -10z"/> <path d="M2830 2020 c0 -7 3 -10 7 -7 3 4 3 10 0 14 -4 3 -7 0 -7 -7z"/> <path d="M2393 1873 c4 -3 10 -3 14 0 3 4 0 7 -7 7 -7 0 -10 -3 -7 -7z"/> <path d="M2344 1838 c-4 -7 -3 -8 4 -4 7 4 12 9 12 12 0 8 -9 4 -16 -8z"/> <path d="M1995 1674 c-11 -3 -35 -10 -53 -16 -30 -9 -32 -12 -19 -26 8 -10 24 -36 36 -60 12 -24 25 -42 29 -40 4 2 31 16 60 31 29 15 58 27 65 25 16 -3 87 24 87 33 0 26 -153 65 -205 53z"/> <path d="M2947 1633 c-4 -3 -7 -11 -7 -17 0 -6 5 -5 12 2 6 6 9 14 7 17 -3 3 -9 2 -12 -2z"/> <path d="M2323 1613 c4 -3 10 -3 14 0 3 4 0 7 -7 7 -7 0 -10 -3 -7 -7z"/> <path d="M2867 1603 c-11 -17 13 -28 26 -13 9 10 9 11 0 6 -6 -3 -13 -1 -15 6 -3 9 -6 9 -11 1z"/> <path d="M2210 1585 c-7 -8 -22 -16 -34 -16 -18 -1 -18 -2 -3 -6 10 -3 26 2 35 10 9 8 28 17 42 20 l25 4 -26 2 c-15 0 -32 -6 -39 -14z"/> <path d="M2936 1591 c-3 -5 3 -11 15 -14 16 -4 18 -3 8 9 -13 16 -16 17 -23 5z"/> <path d="M2340 1570 c0 -7 3 -10 7 -7 3 4 3 10 0 14 -4 3 -7 0 -7 -7z"/> <path d="M2240 1535 c14 -17 30 -20 30 -4 0 5 -4 7 -10 4 -5 -3 -10 -1 -10 4 0 6 -5 11 -11 11 -8 0 -8 -5 1 -15z"/> <path d="M2330 1540 c0 -7 3 -10 7 -7 3 4 3 10 0 14 -4 3 -7 0 -7 -7z"/> <path d="M2919 1541 c19 -12 3 -33 -22 -29 -18 2 -22 -2 -23 -24 -1 -18 3 -25 12 -21 8 3 17 -2 20 -11 4 -11 13 -15 26 -10 17 5 19 2 16 -22 -2 -20 -9 -28 -25 -29 -13 -1 -26 -5 -30 -10 -5 -4 3 -4 16 0 18 5 22 4 16 -5 -6 -9 -4 -11 5 -5 9 6 10 2 5 -16 -4 -14 -4 -20 1 -16 13 12 40 147 36 178 -3 22 -8 26 -35 27 -20 0 -27 -2 -18 -7z"/> <path d="M2210 1502 c0 -4 10 -9 22 -9 18 -2 20 0 8 7 -18 12 -30 13 -30 2z"/> <path d="M2815 1500 c-4 -6 -4 -14 -1 -19 3 -4 -7 -6 -22 -3 -25 4 -26 3 -11 -12 18 -19 39 -14 56 13 10 15 9 20 -2 25 -8 3 -17 1 -20 -4z"/> <path d="M2190 1490 c0 -7 3 -10 7 -7 3 4 3 10 0 14 -4 3 -7 0 -7 -7z"/> <path d="M2883 1443 c4 -3 10 -3 14 0 3 4 0 7 -7 7 -7 0 -10 -3 -7 -7z"/> <path d="M2800 1425 c0 -8 5 -15 11 -15 5 0 7 -4 4 -10 -3 -5 -1 -10 5 -10 6 0 8 -5 4 -12 -5 -7 -11 -5 -21 7 -7 11 -13 14 -13 8 0 -15 25 -34 34 -25 4 4 11 7 14 8 4 0 15 4 25 9 15 6 16 10 5 17 -9 7 -7 8 9 5 15 -3 20 -1 16 9 -2 7 -12 10 -20 7 -11 -4 -14 -2 -9 5 5 9 1 9 -18 2 -17 -6 -26 -6 -26 0 0 6 -4 10 -10 10 -5 0 -10 -7 -10 -15z m57 -20 c0 -8 -6 -15 -14 -15 -14 0 -17 12 -6 23 11 11 20 8 20 -8z"/> <path d="M2890 1360 c0 -6 -4 -8 -10 -5 -6 3 -7 -1 -4 -10 4 -9 9 -12 13 -8 3 4 10 11 15 14 4 4 3 10 -3 13 -6 4 -11 2 -11 -4z"/> <path d="M2780 1340 c-13 -25 6 -28 36 -5 18 13 18 14 -5 8 -17 -4 -22 -3 -17 5 4 7 5 12 2 12 -3 0 -10 -9 -16 -20z"/> <path d="M2845 1320 c3 -5 10 -10 16 -10 5 0 9 5 9 10 0 6 -7 10 -16 10 -8 0 -12 -4 -9 -10z"/> <path d="M80 1263 c0 -7 4 -13 9 -13 5 0 11 6 14 13 3 8 -1 14 -9 14 -8 0 -14 -6 -14 -14z"/> <path d="M115 1259 c-4 -6 -5 -12 -2 -15 2 -3 7 2 10 11 7 17 1 20 -8 4z"/> <path d="M670 1175 c0 -8 4 -15 10 -15 5 0 7 7 4 15 -4 8 -8 15 -10 15 -2 0 -4 -7 -4 -15z"/> <path d="M2835 1140 c3 -5 8 -10 11 -10 2 0 4 5 4 10 0 6 -5 10 -11 10 -5 0 -7 -4 -4 -10z"/> <path d="M2860 1100 c0 -7 3 -10 7 -7 3 4 3 10 0 14 -4 3 -7 0 -7 -7z"/> <path d="M776 979 c10 -11 28 -26 39 -31 14 -8 12 -2 -9 21 -33 34 -61 44 -30 10z"/> <path d="M823 853 c4 -3 10 -3 14 0 3 4 0 7 -7 7 -7 0 -10 -3 -7 -7z"/> <path d="M1946 527 c3 -10 9 -15 12 -12 3 3 0 11 -7 18 -10 9 -11 8 -5 -6z"/> <path d="M1960 490 c0 -7 3 -10 7 -7 3 4 3 10 0 14 -4 3 -7 0 -7 -7z"/> <path d="M1925 467 c-24 -28 -26 -39 -11 -62 9 -14 22 -25 28 -25 6 0 4 8 -5 18 -24 26 -21 39 3 17 11 -10 20 -13 20 -7 0 15 -35 33 -45 24 -5 -4 -5 -1 -1 6 4 7 12 10 17 7 5 -4 9 3 9 14 0 24 -1 25 -15 8z"/> <path d="M1974 423 c2 -13 0 -23 -5 -23 -5 0 -9 -7 -9 -16 0 -8 5 -12 10 -9 6 3 10 -1 10 -9 0 -9 -4 -16 -9 -16 -10 0 -3 -38 8 -44 11 -7 11 92 1 116 l-11 23 5 -22z"/> <path d="M832 360 c0 -14 2 -19 5 -12 2 6 2 18 0 25 -3 6 -5 1 -5 -13z"/> </g> </svg> 